<mxfile host="app.diagrams.net" agent="Mozilla/5.0 (X11; Linux x86_64; rv:143.0) Gecko/20100101 Firefox/143.0" version="28.2.0">
  <diagram name="Page-1" id="Js2Wv-4pcarkS9g66pPF">
    <mxGraphModel dx="1026" dy="569" grid="1" gridSize="10" guides="1" tooltips="1" connect="1" arrows="1" fold="1" page="1" pageScale="1" pageWidth="850" pageHeight="1100" math="0" shadow="0">
      <root>
        <mxCell id="0" />
        <mxCell id="1" parent="0" />
        <mxCell id="VA1M5-wKqhl2PSAumre--60" value="Models" style="shape=folder;fontStyle=1;tabWidth=110;tabHeight=30;tabPosition=left;html=1;boundedLbl=1;labelInHeader=1;container=1;collapsible=0;whiteSpace=wrap;fontFamily=Helvetica;fontSize=11;fontColor=default;labelBackgroundColor=default;" vertex="1" parent="1">
          <mxGeometry x="40" y="20" width="540" height="410" as="geometry" />
        </mxCell>
        <mxCell id="VA1M5-wKqhl2PSAumre--61" value="" style="html=1;strokeColor=none;resizeWidth=1;resizeHeight=1;fillColor=none;part=1;connectable=0;allowArrows=0;deletable=0;whiteSpace=wrap;fontFamily=Helvetica;fontSize=11;fontColor=default;labelBackgroundColor=default;" vertex="1" parent="VA1M5-wKqhl2PSAumre--60">
          <mxGeometry width="540" height="287" relative="1" as="geometry">
            <mxPoint y="30" as="offset" />
          </mxGeometry>
        </mxCell>
        <mxCell id="VA1M5-wKqhl2PSAumre--66" value="" style="group" vertex="1" connectable="0" parent="VA1M5-wKqhl2PSAumre--60">
          <mxGeometry x="310" y="40" width="177.5" height="172.5" as="geometry" />
        </mxCell>
        <mxCell id="VA1M5-wKqhl2PSAumre--65" value="" style="group" vertex="1" connectable="0" parent="VA1M5-wKqhl2PSAumre--66">
          <mxGeometry x="20" width="157.5" height="172.5" as="geometry" />
        </mxCell>
        <mxCell id="VA1M5-wKqhl2PSAumre--49" value="n" style="text;html=1;align=center;verticalAlign=middle;whiteSpace=wrap;rounded=0;fontFamily=Helvetica;fontSize=11;fontColor=default;labelBackgroundColor=default;" vertex="1" parent="VA1M5-wKqhl2PSAumre--65">
          <mxGeometry x="82.5" y="152.5" width="20" height="20" as="geometry" />
        </mxCell>
        <mxCell id="VA1M5-wKqhl2PSAumre--64" value="" style="group" vertex="1" connectable="0" parent="VA1M5-wKqhl2PSAumre--65">
          <mxGeometry width="157.5" height="152.5" as="geometry" />
        </mxCell>
        <mxCell id="VA1M5-wKqhl2PSAumre--33" value="&lt;p style=&quot;margin:0px;margin-top:4px;text-align:center;&quot;&gt;&lt;b&gt;Gamble&lt;/b&gt;&lt;/p&gt;&lt;hr style=&quot;border-style:solid;&quot; size=&quot;1&quot;&gt;&lt;p style=&quot;margin:0px;margin-left:4px;&quot;&gt;- id : int&lt;/p&gt;&lt;p style=&quot;margin:0px;margin-left:4px;&quot;&gt;- bet_id : string&lt;/p&gt;&lt;p style=&quot;margin:0px;margin-left:4px;&quot;&gt;- user_id : string&lt;/p&gt;&lt;p style=&quot;margin:0px;margin-left:4px;&quot;&gt;- value : float&lt;/p&gt;&lt;p style=&quot;margin:0px;margin-left:4px;&quot;&gt;- user_guess: int&lt;/p&gt;&lt;hr style=&quot;border-style:solid;&quot; size=&quot;1&quot;&gt;" style="verticalAlign=top;align=left;overflow=fill;html=1;whiteSpace=wrap;fontStyle=4" vertex="1" parent="VA1M5-wKqhl2PSAumre--64">
          <mxGeometry y="22.5" width="157.5" height="130" as="geometry" />
        </mxCell>
        <mxCell id="VA1M5-wKqhl2PSAumre--34" value="Ato de apostar" style="text;html=1;align=center;verticalAlign=middle;whiteSpace=wrap;rounded=0;fontStyle=4" vertex="1" parent="VA1M5-wKqhl2PSAumre--64">
          <mxGeometry width="80" height="30" as="geometry" />
        </mxCell>
        <mxCell id="VA1M5-wKqhl2PSAumre--48" value="n" style="text;html=1;align=center;verticalAlign=middle;whiteSpace=wrap;rounded=0;fontFamily=Helvetica;fontSize=11;fontColor=default;labelBackgroundColor=default;" vertex="1" parent="VA1M5-wKqhl2PSAumre--66">
          <mxGeometry y="67.5" width="20" height="20" as="geometry" />
        </mxCell>
        <mxCell id="VA1M5-wKqhl2PSAumre--45" value="" style="group" vertex="1" connectable="0" parent="VA1M5-wKqhl2PSAumre--60">
          <mxGeometry x="191.25" y="240" width="157.5" height="135" as="geometry" />
        </mxCell>
        <mxCell id="VA1M5-wKqhl2PSAumre--31" value="&lt;p style=&quot;margin:0px;margin-top:4px;text-align:center;&quot;&gt;&lt;b&gt;User&lt;/b&gt;&lt;/p&gt;&lt;hr size=&quot;1&quot; style=&quot;border-style:solid;&quot;&gt;&lt;p style=&quot;margin:0px;margin-left:4px;&quot;&gt;- id : int&lt;/p&gt;&lt;p style=&quot;margin:0px;margin-left:4px;&quot;&gt;- name : string&lt;/p&gt;&lt;p style=&quot;margin:0px;margin-left:4px;&quot;&gt;- email : string&lt;/p&gt;&lt;p style=&quot;margin:0px;margin-left:4px;&quot;&gt;- password : string&lt;/p&gt;&lt;hr size=&quot;1&quot; style=&quot;border-style:solid;&quot;&gt;" style="verticalAlign=top;align=left;overflow=fill;html=1;whiteSpace=wrap;" vertex="1" parent="VA1M5-wKqhl2PSAumre--45">
          <mxGeometry y="20" width="157.5" height="115" as="geometry" />
        </mxCell>
        <mxCell id="VA1M5-wKqhl2PSAumre--43" value="1" style="text;html=1;align=center;verticalAlign=middle;whiteSpace=wrap;rounded=0;fontFamily=Helvetica;fontSize=11;fontColor=default;labelBackgroundColor=default;" vertex="1" parent="VA1M5-wKqhl2PSAumre--45">
          <mxGeometry x="80" width="20" height="20" as="geometry" />
        </mxCell>
        <mxCell id="VA1M5-wKqhl2PSAumre--44" value="1" style="text;html=1;align=center;verticalAlign=middle;whiteSpace=wrap;rounded=0;fontFamily=Helvetica;fontSize=11;fontColor=default;labelBackgroundColor=default;" vertex="1" parent="VA1M5-wKqhl2PSAumre--45">
          <mxGeometry x="60" width="20" height="20" as="geometry" />
        </mxCell>
        <mxCell id="VA1M5-wKqhl2PSAumre--42" value="" style="edgeStyle=orthogonalEdgeStyle;shape=connector;curved=1;rounded=0;orthogonalLoop=1;jettySize=auto;html=1;strokeColor=default;align=center;verticalAlign=middle;fontFamily=Helvetica;fontSize=11;fontColor=default;labelBackgroundColor=default;endArrow=diamond;endFill=0;" edge="1" parent="VA1M5-wKqhl2PSAumre--60" source="VA1M5-wKqhl2PSAumre--31" target="VA1M5-wKqhl2PSAumre--33">
          <mxGeometry relative="1" as="geometry" />
        </mxCell>
        <mxCell id="VA1M5-wKqhl2PSAumre--68" value="FK" style="text;html=1;align=center;verticalAlign=middle;whiteSpace=wrap;rounded=0;fontFamily=Helvetica;fontSize=12;fontColor=default;" vertex="1" parent="VA1M5-wKqhl2PSAumre--60">
          <mxGeometry x="170" y="200" width="30" height="30" as="geometry" />
        </mxCell>
        <mxCell id="VA1M5-wKqhl2PSAumre--39" value="" style="edgeStyle=orthogonalEdgeStyle;rounded=0;orthogonalLoop=1;jettySize=auto;html=1;curved=1;endArrow=diamond;endFill=0;" edge="1" parent="1" source="VA1M5-wKqhl2PSAumre--31" target="VA1M5-wKqhl2PSAumre--32">
          <mxGeometry relative="1" as="geometry" />
        </mxCell>
        <mxCell id="VA1M5-wKqhl2PSAumre--40" value="" style="edgeStyle=orthogonalEdgeStyle;shape=connector;curved=1;rounded=0;orthogonalLoop=1;jettySize=auto;html=1;strokeColor=default;align=center;verticalAlign=middle;fontFamily=Helvetica;fontSize=11;fontColor=default;labelBackgroundColor=default;endArrow=diamond;endFill=1;" edge="1" parent="1" source="VA1M5-wKqhl2PSAumre--32" target="VA1M5-wKqhl2PSAumre--33">
          <mxGeometry relative="1" as="geometry" />
        </mxCell>
        <mxCell id="VA1M5-wKqhl2PSAumre--51" value="" style="group" vertex="1" connectable="0" parent="1">
          <mxGeometry x="80" y="70" width="177.5" height="155" as="geometry" />
        </mxCell>
        <mxCell id="VA1M5-wKqhl2PSAumre--38" value="" style="group" vertex="1" connectable="0" parent="VA1M5-wKqhl2PSAumre--51">
          <mxGeometry width="157.5" height="135" as="geometry" />
        </mxCell>
        <mxCell id="VA1M5-wKqhl2PSAumre--32" value="&lt;p style=&quot;margin:0px;margin-top:4px;text-align:center;&quot;&gt;&lt;b&gt;Bet&lt;/b&gt;&lt;/p&gt;&lt;hr size=&quot;1&quot; style=&quot;border-style:solid;&quot;&gt;&lt;p style=&quot;margin:0px;margin-left:4px;&quot;&gt;- id : int&lt;/p&gt;&lt;p style=&quot;margin:0px;margin-left:4px;&quot;&gt;- user_id : int&lt;/p&gt;&lt;p style=&quot;margin:0px;margin-left:4px;&quot;&gt;- max_users : int&lt;/p&gt;&lt;p style=&quot;margin:0px;margin-left:4px;&quot;&gt;- max_gamble : int&lt;/p&gt;&lt;hr size=&quot;1&quot; style=&quot;border-style:solid;&quot;&gt;" style="verticalAlign=top;align=left;overflow=fill;html=1;whiteSpace=wrap;" vertex="1" parent="VA1M5-wKqhl2PSAumre--38">
          <mxGeometry y="20" width="157.5" height="115" as="geometry" />
        </mxCell>
        <mxCell id="VA1M5-wKqhl2PSAumre--36" value="rodada" style="text;html=1;align=center;verticalAlign=middle;whiteSpace=wrap;rounded=0;" vertex="1" parent="VA1M5-wKqhl2PSAumre--38">
          <mxGeometry width="40" height="30" as="geometry" />
        </mxCell>
        <mxCell id="VA1M5-wKqhl2PSAumre--46" value="n" style="text;html=1;align=center;verticalAlign=middle;whiteSpace=wrap;rounded=0;fontFamily=Helvetica;fontSize=11;fontColor=default;labelBackgroundColor=default;" vertex="1" parent="VA1M5-wKqhl2PSAumre--51">
          <mxGeometry x="80" y="135" width="20" height="20" as="geometry" />
        </mxCell>
        <mxCell id="VA1M5-wKqhl2PSAumre--50" value="1" style="text;html=1;align=center;verticalAlign=middle;whiteSpace=wrap;rounded=0;fontFamily=Helvetica;fontSize=11;fontColor=default;labelBackgroundColor=default;" vertex="1" parent="VA1M5-wKqhl2PSAumre--51">
          <mxGeometry x="157.5" y="57.5" width="20" height="20" as="geometry" />
        </mxCell>
      </root>
    </mxGraphModel>
  </diagram>
</mxfile>
